<svg width="400" height="120" viewBox="0 0 400 120" xmlns="http://www.w3.org/2000/svg">
  <!-- NanaSQLite Official SVG Logo (Case 3 + Typography) -->
  <defs>
    <linearGradient id="brand-gradient" x1="0%" y1="0%" x2="100%" y2="100%">
      <stop offset="0%" style="stop-color:#6366f1;stop-opacity:1" />
      <stop offset="100%" style="stop-color:#4f46e5;stop-opacity:1" />
    </linearGradient>
  </defs>
  
  <!-- "Dict-Stack" Icon -->
  <g transform="translate(10, 10)">
    <!-- Left Brace { -->
    <path d="M45,20 C35,20 30,25 30,35 L30,45 C30,50 25,52 20,53 C25,54 30,56 30,61 L30,71 C30,81 35,86 45,86" fill="none" stroke="url(#brand-gradient)" stroke-width="8" stroke-linecap="round"/>
    
    <!-- Data Stack (Center Bars) -->
    <rect x="42" y="38" width="30" height="6" rx="3" fill="url(#brand-gradient)"/>
    <rect x="42" y="50" width="30" height="6" rx="3" fill="url(#brand-gradient)"/>
    <rect x="42" y="62" width="30" height="6" rx="3" fill="url(#brand-gradient)"/>
    
    <!-- Right Brace } -->
    <path d="M69,20 C79,20 84,25 84,35 L84,45 C84,50 89,52 94,53 C89,54 84,56 84,61 L84,71 C84,81 79,86 69,86" fill="none" stroke="url(#brand-gradient)" stroke-width="8" stroke-linecap="round"/>
  </g>
  
  <!-- Typography "NanaSQLite" -->
  <text x="115" y="73" font-family="'Inter', 'Segoe UI', Arial, sans-serif" font-weight="700" font-size="52" fill="#1e293b" letter-spacing="-1">
    Nana<tspan fill="#4f46e5">SQLite</tspan>
  </text>
  
  <!-- Subtitle (Optional, but makes it pro) -->
  <text x="118" y="96" font-family="'Inter', sans-serif" font-weight="500" font-size="14" fill="#64748b" letter-spacing="1">
    ULTRA-FAST PYTHON DATA STORE
  </text>
</svg>
